PathFileType	4	(X/Y/Z)	3_coords_data.trc
DataRate	CameraRate	NumFrames	NumMarkers	Units	OrigDataRate	OrigDataStartFrame	OrigNumFrames
30.0	30.0	6	21	m	30.0	1	49
Frame#	Time	THUMB_TIP	THUMB_IP	THUMB_MCP	THUMB_CMC	INDEX_TIP	INDEX_DIP	INDEX_PIP	INDEX_MCP	MIDDLE_TIP	MIDDLE_DIP	MIDDLE_PIP	MIDDLE_MCP	RING_TIP	RING_DIP	RING_PIP	RING_MCP	PINKY_TIP	PINKY_DIP	PINKY_PIP	PINKY_MCP	WRIST
X1	Y1	Z1	X2	Y2	Z2	X3	Y3	Z3	X4	Y4	Z4	X5	Y5	Z5	X6	Y6	Z6	X7	Y7	Z7	X8	Y8	Z8	X9	Y9	Z9	X10	Y10	Z10	X11	Y11	Z11	X12	Y12	Z12	X13	Y13	Z13	X14	Y14	Z14	X15	Y15	Z15	X16	Y16	Z16	X17	Y17	Z17	X18	Y18	Z18	X19	Y19	Z19	X20	Y20	Z20	X21	Y21	Z21
0	0.0	-0.06714420318603516	-0.13713499450683594	0.9895679931640625	-0.07169819641113281	-0.11574199676513672	1.00952001953125	-0.08302500152587891	-0.09843350219726563	1.0333599853515625	-0.09036250305175782	-0.061366401672363284	1.0573199462890626	-0.053562999725341794	-0.09012039947509766	0.9151300048828125	-0.060817298889160154	-0.08605560302734375	0.9383179931640625	-0.06702559661865234	-0.08196029663085938	0.9596959838867187	-0.07639569854736328	-0.07405039978027343	1.0002100219726562	-0.0573849983215332	-0.05881420135498047	0.9032579956054687	-0.06276100158691406	-0.05733679962158203	0.9293460083007813	-0.07032129669189453	-0.05508160018920898	0.9600360107421875	-0.07345670318603516	-0.051537700653076175	0.986885986328125	-0.05257799911499023	-0.01267889976501465	0.9208790283203125	-0.06306449890136719	-0.018049299240112306	0.9459819946289062	-0.07394129943847656	-0.02456649971008301	0.9698679809570312	-0.08688700103759765	-0.03378160095214844	1.003530029296875	-0.050429298400878904	0.018155399322509765	0.9581480102539063	-0.06085879898071289	0.009151000022888184	0.9739710083007812	-0.07156089782714843	-0.000937539994716644	0.9867579956054687	-0.07999130249023438	-0.015472599983215332	1.0091099853515626	-0.11859200286865235	-0.04042839813232422	1.0746500244140624
1	0.03333333333333333	-0.0664363021850586	-0.13708399963378906	0.9898259887695312	-0.07112760162353515	-0.11548000335693359	1.00822998046875	-0.08153070068359375	-0.09776429748535156	1.033199951171875	-0.0879136962890625	-0.06628019714355468	1.054	-0.053941699981689455	-0.09035859680175781	0.9149119873046875	-0.06024509811401367	-0.08669840240478516	0.937760009765625	-0.06756700134277344	-0.08246779632568359	0.9606740112304688	-0.07922470092773437	-0.07445179748535156	0.9964310302734375	-0.05708660125732422	-0.05920959854125977	0.9031209716796875	-0.06300450134277344	-0.05737730026245117	0.9280869750976563	-0.0713447036743164	-0.05517470169067383	0.9568259887695313	-0.08162139892578125	-0.05244609832763672	0.9923930053710938	-0.05247219848632813	-0.013104000091552735	0.92097998046875	-0.06158760070800781	-0.01782200050354004	0.9424879760742187	-0.07248570251464843	-0.023588699340820314	0.9664130249023437	-0.08496630096435547	-0.03283789825439453	0.9998939819335938	-0.05050839996337891	0.01753849983215332	0.9591420288085938	-0.0611697998046875	0.008579219818115234	0.9735900268554688	-0.07098529815673828	-0.000470835000276565	0.9871199951171875	-0.08123490142822265	-0.01565659999847412	1.00872998046875	-0.11331199645996094	-0.04086370086669922	1.0723699951171874
2	0.06666666666666667	-0.06665000152587891	-0.13714900207519531	0.9894849853515625	-0.07130039978027344	-0.11561399841308594	1.0078599853515624	-0.08165959930419922	-0.09786699676513672	1.0328499755859375	-0.08805750274658203	-0.06641719818115234	1.053699951171875	-0.054086601257324216	-0.09031890106201172	0.914677001953125	-0.06035660171508789	-0.08673480224609376	0.9374829711914062	-0.06772630310058594	-0.08254419708251953	0.960427001953125	-0.07937650299072266	-0.07452680206298828	0.9961619873046875	-0.05690719985961914	-0.059219600677490235	0.9030029907226562	-0.06295439910888671	-0.05742070007324219	0.9278709716796875	-0.07140579986572265	-0.05521540069580078	0.9565360107421875	-0.08178230285644532	-0.052567798614501955	0.9920960083007813	-0.052466800689697266	-0.013284299850463867	0.9208179931640625	-0.06172829818725586	-0.017999900817871093	0.9422860107421875	-0.07269850158691406	-0.023737100601196288	0.9661680297851563	-0.08520240020751953	-0.033002201080322265	0.9996610107421875	-0.050824100494384766	0.017313899993896483	0.958718017578125	-0.06147359848022461	0.008391579627990723	0.9732589721679688	-0.07130329895019531	-0.000655660986900329	0.9868209838867188	-0.0815343017578125	-0.015760600090026857	1.0084600219726563	-0.11365299987792969	-0.04075490188598633	1.0720899658203125
3	0.1	-0.0670281982421875	-0.13719500732421874	0.9891339721679687	-0.0715291976928711	-0.11572200012207032	1.0075499877929688	-0.08195899963378907	-0.09796309661865234	1.0326600341796874	-0.08817420196533203	-0.06652690124511719	1.05347998046875	-0.05423160171508789	-0.09046330261230469	0.9144509887695312	-0.060552600860595704	-0.08680359649658204	0.9372570190429688	-0.06803109741210937	-0.08262680053710937	0.9601920166015625	-0.07974510192871094	-0.07465809631347656	0.99589599609375	-0.05675960159301758	-0.05928469848632813	0.9029140014648438	-0.06296390151977539	-0.05752619934082031	0.9276909790039063	-0.0715791015625	-0.05535440063476563	0.956291015625	-0.08213179779052734	-0.052672698974609376	0.9918270263671874	-0.05252859878540039	-0.013612600326538086	0.920635009765625	-0.06187850189208984	-0.01822410011291504	0.9420139770507813	-0.07291310119628906	-0.023874599456787108	0.965781005859375	-0.08552899932861328	-0.03303960037231445	0.999322998046875	-0.05121189880371094	0.017067100524902342	0.958322998046875	-0.06184289932250977	0.00822445011138916	0.9728289794921875	-0.07165540313720703	-0.0007468969821929931	0.9864130249023437	-0.08185050201416015	-0.015769100189208983	1.0081199951171875	-0.11380999755859375	-0.041027698516845706	1.0718599853515625
4	0.13333333333333333	-0.06739250183105469	-0.13709800720214843	0.9887329711914062	-0.07187270355224609	-0.11564299774169921	1.007219970703125	-0.08225959777832031	-0.09794529724121094	1.0323699951171874	-0.088527099609375	-0.06654389953613281	1.05325	-0.0545088005065918	-0.09046479797363281	0.9142449951171875	-0.06091389846801758	-0.08679070281982422	0.9370640258789062	-0.06841439819335937	-0.08260489654541016	0.9599970092773438	-0.08016159820556641	-0.07466580200195312	0.9956610107421875	-0.056680500030517576	-0.05923979949951172	0.9027969970703125	-0.06304059982299805	-0.05747700119018555	0.927573974609375	-0.07177690124511718	-0.05534799957275391	0.9561279907226562	-0.08254779815673828	-0.05269869995117187	0.9916729736328125	-0.05251070022583008	-0.013803899765014649	0.9205360107421875	-0.06202890014648438	-0.018355199813842774	0.9418460083007812	-0.07321690368652344	-0.023957799911499024	0.9656160278320313	-0.08589230346679687	-0.033115398406982424	0.9992069702148437	-0.05155530166625977	0.016809900283813475	0.95789599609375	-0.062229801177978515	0.008053130149841308	0.9724619750976562	-0.07206330108642578	-0.000857783019542694	0.98606201171875	-0.08219560241699218	-0.015826999664306642	1.0078800048828125	-0.11393499755859375	-0.04112860107421875	1.07177001953125
5	0.16666666666666666	-0.06779340362548827	-0.13688800048828126	0.9882979736328125	-0.07232749938964844	-0.11547899627685547	1.0068200073242188	-0.08249649810791015	-0.09792980194091797	1.032010009765625	-0.08869349670410157	-0.06653569793701172	1.053010009765625	-0.05484579849243164	-0.09021959686279298	0.914031982421875	-0.06131470108032227	-0.08670120239257813	0.93677197265625	-0.06886219787597657	-0.082581298828125	0.9596519775390625	-0.08059390258789062	-0.07470929718017578	0.99535400390625	-0.056809600830078126	-0.05907569885253906	0.9025780029296875	-0.06335969924926758	-0.057384700775146485	0.927260986328125	-0.07221939849853516	-0.05526470184326172	0.9558569946289063	-0.08299620056152343	-0.05270790100097656	0.9911840209960937	-0.052703899383544923	-0.013857799530029297	0.9203660278320313	-0.06235879898071289	-0.018381599426269532	0.941655029296875	-0.07361460113525391	-0.023891199111938478	0.965301025390625	-0.08639630126953125	-0.03304759979248047	0.9989169921875	-0.052101200103759765	0.016625600814819334	0.9574240112304687	-0.0627760009765625	0.007920650005340577	0.9719940185546875	-0.07256670379638672	-0.0009245060086250301	0.9856790161132812	-0.08267500305175782	-0.015765999794006346	1.0076500244140625	-0.11413600158691406	-0.04115129852294922	1.071530029296875
